<svg width="20" height="20" viewBox="0 0 20 20" fill="none" xmlns="http://www.w3.org/2000/svg">
<g clip-path="url(#clip0_68_1846)">
<path d="M7.49996 18.3334C7.9602 18.3334 8.33329 17.9603 8.33329 17.5001C8.33329 17.0398 7.9602 16.6667 7.49996 16.6667C7.03972 16.6667 6.66663 17.0398 6.66663 17.5001C6.66663 17.9603 7.03972 18.3334 7.49996 18.3334Z" stroke="black" stroke-width="2" stroke-linecap="round" stroke-linejoin="round"/>
<path d="M16.6667 18.3334C17.1269 18.3334 17.5 17.9603 17.5 17.5001C17.5 17.0398 17.1269 16.6667 16.6667 16.6667C16.2065 16.6667 15.8334 17.0398 15.8334 17.5001C15.8334 17.9603 16.2065 18.3334 16.6667 18.3334Z" stroke="black" stroke-width="2" stroke-linecap="round" stroke-linejoin="round"/>
<path d="M0.833374 0.833252H4.16671L6.40004 11.9916C6.47624 12.3752 6.68496 12.7199 6.98966 12.9652C7.29436 13.2104 7.67562 13.3407 8.06671 13.3333H16.1667C16.5578 13.3407 16.9391 13.2104 17.2438 12.9652C17.5485 12.7199 17.7572 12.3752 17.8334 11.9916L19.1667 4.99992H5.00004" stroke="black" stroke-width="2" stroke-linecap="round" stroke-linejoin="round"/>
<path d="M1 1H4.33333L6.56667 12.1583C6.64287 12.542 6.85159 12.8866 7.15629 13.1319C7.46099 13.3772 7.84225 13.5075 8.23333 13.5H16.3333C16.7244 13.5075 17.1057 13.3772 17.4104 13.1319C17.7151 12.8866 17.9238 12.542 18 12.1583L19.3333 5.16667H5.16667" stroke="black" stroke-width="2" stroke-linecap="round" stroke-linejoin="round"/>
</g>
<defs>
<clipPath id="clip0_68_1846">
<rect width="20" height="20" fill="white"/>
</clipPath>
</defs>
</svg>
