<svg width="294" height="90" viewBox="0 0 294 90" fill="none" xmlns="http://www.w3.org/2000/svg">
<path d="M4.78307 89.2463C3.4893 89.2463 2.38036 88.7934 1.54865 87.9782C0.716942 87.163 0.254883 86.076 0.254883 84.8079V45.0434C0.347295 40.4239 1.45624 36.3478 3.58171 32.634C5.70719 29.0108 8.66437 26.1123 12.2684 23.9384C15.9649 21.855 20.1234 20.7681 24.744 20.7681C29.4571 20.7681 33.6156 21.855 37.3121 23.9384C41.0085 26.0217 43.8733 28.9202 46.0912 32.634C48.2167 36.2572 49.3256 40.4239 49.3256 45.0434C49.3256 49.663 48.3091 53.7391 46.3684 57.3623C44.3354 60.9855 41.6554 63.884 38.2362 65.9673C34.8169 68.0507 30.9356 69.1376 26.5923 69.1376C23.0806 69.1376 19.8462 68.413 16.889 66.9637C13.9318 65.5144 11.4367 63.6123 9.40367 61.1666V84.7173C9.40367 85.9855 8.9416 87.0724 8.20231 87.8876C7.27819 88.884 6.16925 89.2463 4.78307 89.2463ZM24.744 61.3478C27.7936 61.3478 30.4736 60.6231 32.8763 59.1739C35.279 57.7246 37.1272 55.8224 38.5134 53.2862C39.8996 50.8405 40.6389 48.0326 40.6389 44.9528C40.6389 41.7826 39.8996 38.9746 38.5134 36.5289C37.1272 34.0833 35.1866 32.0905 32.8763 30.6413C30.4736 29.192 27.7936 28.4673 24.744 28.4673C21.7869 28.4673 19.1069 29.192 16.7042 30.6413C14.3015 32.0905 12.4533 33.9927 11.0671 36.5289C9.6809 38.9746 9.03402 41.7826 9.03402 44.9528C9.03402 48.0326 9.6809 50.8405 11.0671 53.2862C12.4533 55.7318 14.3015 57.7246 16.7042 59.1739C19.1069 60.6231 21.7869 61.3478 24.744 61.3478Z" fill="white"/>
<path d="M72.521 69.2282C67.7156 69.2282 63.4647 68.2318 59.7682 66.1485C56.0717 64.0652 53.2069 61.2572 51.0815 57.634C48.956 54.0108 47.9395 49.8441 47.9395 45.134C47.9395 40.3333 48.956 36.1666 51.0815 32.5434C53.2069 28.9202 56.0717 26.0217 59.7682 24.0289C63.4647 21.9456 67.7156 20.9492 72.521 20.9492C77.234 20.9492 81.485 21.9456 85.1815 24.0289C88.8779 26.1123 91.7427 28.9202 93.8682 32.5434C95.9937 36.1666 97.0102 40.4239 97.0102 45.134C97.0102 49.8441 95.9937 54.0108 93.8682 57.634C91.8351 61.2572 88.8779 64.1557 85.2739 66.1485C81.485 68.1413 77.3264 69.2282 72.521 69.2282ZM72.521 61.3478C75.5706 61.3478 78.343 60.6231 80.7457 59.2644C83.1484 57.9057 84.9966 55.913 86.2904 53.4673C87.5842 51.0217 88.3235 48.2137 88.3235 45.0434C88.3235 41.8731 87.6766 38.9746 86.2904 36.5289C84.9966 34.0833 83.056 32.0905 80.7457 30.7318C78.343 29.3731 75.663 28.6485 72.521 28.6485C69.4714 28.6485 66.6991 29.3731 64.2964 30.7318C61.8937 32.0905 60.0454 34.0833 58.6592 36.5289C57.2731 38.9746 56.6262 41.8731 56.6262 45.0434C56.6262 48.2137 57.2731 51.0217 58.6592 53.4673C60.0454 55.913 61.8937 57.8152 64.2964 59.2644C66.6991 60.6231 69.379 61.3478 72.521 61.3478Z" fill="white"/>
<path d="M120.113 69.2282C115.493 69.2282 111.334 68.1413 107.638 66.058C103.941 63.9746 100.984 61.0761 98.8584 57.3623C96.733 53.7391 95.624 49.5725 95.624 44.9529C95.624 40.3333 96.6406 36.2572 98.5812 32.6341C100.614 29.0109 103.294 26.1123 106.713 24.029C110.133 21.9456 114.014 20.8587 118.357 20.8587C121.869 20.8587 125.103 21.5833 128.061 23.0326C131.018 24.4819 133.513 26.3841 135.546 28.8297V5.27898C135.546 3.92029 136.008 2.83333 136.84 2.01811C137.671 1.2029 138.78 0.840576 140.074 0.840576C141.46 0.840576 142.569 1.2029 143.401 2.01811C144.233 2.83333 144.602 3.92029 144.602 5.27898V45.0435C144.602 49.663 143.493 53.7391 141.368 57.4529C139.242 61.0761 136.285 63.9746 132.589 66.1485C128.892 68.1413 124.734 69.2282 120.113 69.2282ZM120.113 61.3478C123.163 61.3478 125.843 60.6232 128.245 59.1739C130.648 57.7246 132.496 55.8225 133.883 53.2862C135.269 50.75 135.916 48.0326 135.916 44.9529C135.916 41.7826 135.269 38.9746 133.883 36.6196C132.496 34.1739 130.648 32.2717 128.245 30.8225C125.843 29.3732 123.163 28.6485 120.113 28.6485C117.156 28.6485 114.476 29.3732 112.073 30.8225C109.671 32.2717 107.73 34.1739 106.344 36.6196C104.958 39.0652 104.218 41.8732 104.218 44.9529C104.218 48.0326 104.958 50.8406 106.344 53.2862C107.73 55.8225 109.671 57.7246 112.073 59.1739C114.476 60.6232 117.156 61.3478 120.113 61.3478Z" fill="white"/>
<path d="M166.504 68.8659C163.916 68.8659 161.606 68.1413 159.573 66.7826C157.54 65.4239 155.969 63.5217 154.86 61.0761C153.751 58.6304 153.197 55.913 153.197 52.7427V5.09783C153.197 3.82971 153.566 2.74275 154.398 1.92754C155.23 1.11232 156.339 0.75 157.632 0.75C158.926 0.75 160.035 1.11232 160.867 1.92754C161.699 2.74275 162.068 3.82971 162.068 5.09783V52.7427C162.068 54.9167 162.438 56.6377 163.27 58.087C164.101 59.4456 165.21 60.1703 166.504 60.1703H168.722C169.923 60.1703 170.847 60.5326 171.587 61.3478C172.326 62.163 172.696 63.25 172.696 64.5181C172.696 65.7862 172.141 66.8732 171.032 67.6884C169.923 68.5036 168.445 68.8659 166.689 68.8659H166.504Z" fill="white"/>
<path d="M183.046 13.3405C181.475 13.3405 180.089 12.7971 178.887 11.6195C177.686 10.442 177.131 9.17388 177.131 7.54344C177.131 6.00359 177.686 4.64489 178.887 3.46735C180.089 2.28982 181.382 1.74634 183.046 1.74634C184.617 1.74634 186.003 2.28982 187.204 3.46735C188.406 4.64489 188.96 5.91301 188.96 7.54344C188.96 9.0833 188.406 10.442 187.204 11.6195C186.003 12.7971 184.617 13.3405 183.046 13.3405ZM183.046 68.8659C181.752 68.8659 180.643 68.413 179.811 67.5978C178.98 66.7826 178.518 65.6956 178.518 64.4275V25.5688C178.518 24.2101 178.98 23.1231 179.811 22.3079C180.643 21.4927 181.752 21.1304 183.046 21.1304C184.432 21.1304 185.541 21.5833 186.373 22.3079C187.204 23.1231 187.574 24.2101 187.574 25.5688V64.4275C187.574 65.6956 187.112 66.7826 186.373 67.5978C185.541 68.413 184.432 68.8659 183.046 68.8659Z" fill="white"/>
<path d="M200.049 30.3696C198.848 30.3696 197.832 30.0072 197 29.2826C196.261 28.558 195.798 27.7428 195.798 26.6558C195.798 25.4783 196.168 24.5725 197 23.8478C197.739 23.1232 198.756 22.7609 200.049 22.7609H222.043C223.245 22.7609 224.261 23.1232 225.093 23.8478C225.832 24.5725 226.294 25.4783 226.294 26.6558C226.294 27.7428 225.925 28.558 225.093 29.2826C224.354 30.0072 223.337 30.3696 222.043 30.3696H200.049ZM208.182 68.866C207.073 68.866 206.056 68.5036 205.132 67.6884C204.208 66.8732 203.838 65.7862 203.838 64.4275V21.4022C203.838 17.2355 204.67 13.6123 206.333 10.5326C207.997 7.4529 210.4 5.00724 213.449 3.37681C216.499 1.65579 220.01 0.840576 223.984 0.840576C225.278 0.840576 226.387 1.2029 227.219 2.01811C228.05 2.74275 228.512 3.73913 228.512 4.91666C228.512 6.00362 228.05 7 227.219 7.72464C226.387 8.53985 225.278 8.90217 223.984 8.90217C221.766 8.90217 219.826 9.35507 218.162 10.3514C216.499 11.3478 215.205 12.7065 214.281 14.4275C213.357 16.1485 212.895 18.2319 212.895 20.587V64.4275C212.895 65.7862 212.433 66.8732 211.693 67.6884C210.862 68.413 209.66 68.866 208.182 68.866Z" fill="white"/>
<path d="M238.585 13.3405C237.014 13.3405 235.628 12.7971 234.427 11.6195C233.225 10.442 232.671 9.17388 232.671 7.54344C232.671 6.00359 233.225 4.64489 234.427 3.46735C235.628 2.28982 236.922 1.74634 238.585 1.74634C240.156 1.74634 241.542 2.28982 242.744 3.46735C243.945 4.64489 244.5 5.91301 244.5 7.54344C244.5 9.0833 243.945 10.442 242.744 11.6195C241.635 12.7971 240.249 13.3405 238.585 13.3405ZM238.585 68.8659C237.291 68.8659 236.183 68.413 235.351 67.5978C234.519 66.7826 234.057 65.6956 234.057 64.4275V25.5688C234.057 24.2101 234.519 23.1231 235.351 22.3079C236.183 21.4927 237.291 21.1304 238.585 21.1304C239.971 21.1304 241.08 21.5833 241.912 22.3079C242.744 23.1231 243.113 24.2101 243.113 25.5688V64.4275C243.113 65.6956 242.651 66.7826 241.912 67.5978C241.08 68.413 239.971 68.8659 238.585 68.8659Z" fill="white"/>
<path d="M275.735 69.2282C271.022 69.2282 266.771 68.1413 263.074 66.0579C259.378 63.9746 256.421 61.076 254.388 57.4528C252.262 53.8297 251.246 49.663 251.246 45.134C251.246 40.4239 252.262 36.2572 254.388 32.5434C256.421 28.9202 259.286 26.0217 262.89 23.9384C266.494 21.855 270.652 20.8586 275.365 20.8586C278.877 20.8586 282.111 21.4927 284.976 22.8514C287.841 24.1195 290.521 26.1123 292.831 28.7391C293.663 29.6449 293.94 30.6412 293.755 31.6376C293.478 32.634 292.831 33.5398 291.815 34.2644C290.983 34.8079 290.059 35.0797 289.042 34.8079C288.026 34.6268 287.102 34.0833 286.27 33.2681C283.405 30.2789 279.709 28.7391 275.365 28.7391C272.316 28.7391 269.636 29.4637 267.325 30.8224C265.015 32.1811 263.167 34.0833 261.873 36.5289C260.579 38.9746 259.932 41.8731 259.932 45.134C259.932 48.3043 260.579 51.1123 261.966 53.4673C263.259 55.913 265.2 57.8152 267.51 59.2644C269.913 60.7137 272.685 61.4384 275.827 61.4384C277.86 61.4384 279.709 61.1666 281.28 60.7137C282.851 60.2608 284.329 59.4456 285.623 58.3586C286.547 57.634 287.564 57.1811 288.58 57.0905C289.597 56.9999 290.521 57.2717 291.26 57.9057C292.277 58.721 292.831 59.6268 292.924 60.6231C293.016 61.6195 292.646 62.5253 291.815 63.3405C287.471 67.2355 282.111 69.2282 275.735 69.2282Z" fill="white"/>
</svg>
